<?xml version="1.0" standalone="no"?>
<!DOCTYPE svg PUBLIC "-//W3C//DTD SVG 20010904//EN"
 "http://www.w3.org/TR/2001/REC-SVG-20010904/DTD/svg10.dtd">
<svg version="1.0" xmlns="http://www.w3.org/2000/svg"
 width="92.000000pt" height="124.000000pt" viewBox="0 0 92.000000 124.000000"
 preserveAspectRatio="xMidYMid meet">
<metadata>
Created by potrace 1.10, written by Peter Selinger 2001-2011
</metadata>
<g transform="translate(0.000000,124.000000) scale(0.050000,-0.050000)"
fill="#ff4500" stroke="none">
<path d="M777 2430 c-120 -66 -595 -885 -709 -1224 -301 -896 775 -1586 1465
-940 426 398 372 852 -213 1794 -250 403 -353 473 -543 370z m179 -509 c63
-131 71 -305 24 -576 -35 -205 -18 -272 72 -281 95 -9 136 120 104 324 -23
146 190 -55 274 -260 148 -361 63 -712 -206 -847 -140 -70 -374 -79 -262 -10
95 59 88 238 -14 340 -102 101 -168 206 -154 245 10 30 8 31 -20 4 -134 -128
-137 -465 -6 -551 118 -77 33 -92 -119 -22 -407 190 -434 624 -72 1177 212
325 231 371 216 544 l-11 138 60 -58 c32 -31 84 -107 114 -167z"/>
</g>
</svg>
